<?xml version="1.0" encoding="UTF-8"?>
<!--Generator: Apple Native CoreSVG 341-->
<!DOCTYPE svg
PUBLIC "-//W3C//DTD SVG 1.1//EN"
       "http://www.w3.org/Graphics/SVG/1.1/DTD/svg11.dtd">
<svg version="1.1" xmlns="http://www.w3.org/2000/svg" xmlns:xlink="http://www.w3.org/1999/xlink" viewBox="0 0 594.266 563.356">
 <g>
  <rect height="563.356" opacity="0" width="594.266" x="0" y="0"/>
  <path d="M502.699 280.823C511 289.124 520.766 289.857 529.066 281.556L588.881 221.985C596.449 214.173 595.961 203.919 587.66 195.862L573.012 181.458C565.687 173.646 560.561 172.669 552.504 173.401L529.066 175.843L513.93 161.194L520.766 133.118C524.428 119.202 519.057 104.798 504.408 90.1495L455.824 42.0538C406.508-6.286 295.18-3.35631 250.502 46.4484C241.469 56.4581 242.934 66.712 248.793 73.3038C253.187 78.4308 261.244 81.3605 267.836 78.1867C303.236 61.5851 341.566 55.9699 373.793 70.3742L353.773 121.644C347.182 138.734 350.6 150.696 361.586 161.683L406.02 206.116C414.076 213.929 422.621 216.37 435.561 213.685L467.543 207.337L482.436 222.474L480.238 245.423C479.262 254.456 480.238 259.339 488.051 266.907ZM14.1738 523.499L39.5644 549.134C60.0722 569.642 85.4629 567.933 106.215 544.251L385.268 225.648C383.803 224.427 382.582 223.206 381.361 221.985L342.299 182.923C341.078 181.458 339.613 179.993 338.148 178.773L19.5449 457.337C-4.62502 478.089-6.33401 503.235 14.1738 523.499Z" fill="white" fill-opacity="0.85"/>
 </g>
</svg>
